<svg width="119" height="96" viewBox="0 0 119 96" fill="none" xmlns="http://www.w3.org/2000/svg">
<path d="M34.848 95.504C29.792 95.504 25.12 94.672 20.832 93.008C16.608 91.28 12.928 88.88 9.792 85.808C6.656 82.672 4.224 78.992 2.496 74.768C0.832 70.48 0 65.776 0 60.656C0 55.664 0.896 51.056 2.688 46.832C4.48 42.608 6.944 38.96 10.08 35.888C13.28 32.752 17.024 30.32 21.312 28.592C25.664 26.864 30.4 26 35.52 26C38.72 26 41.856 26.416 44.928 27.248C48 28.08 50.848 29.328 53.472 30.992C56.16 32.592 58.464 34.512 60.384 36.752L50.4 48.176C49.056 46.768 47.616 45.552 46.08 44.528C44.608 43.44 42.976 42.608 41.184 42.032C39.392 41.456 37.472 41.168 35.424 41.168C32.864 41.168 30.432 41.648 28.128 42.608C25.888 43.504 23.904 44.816 22.176 46.544C20.512 48.208 19.2 50.256 18.24 52.688C17.28 55.12 16.8 57.84 16.8 60.848C16.8 63.792 17.28 66.48 18.24 68.912C19.2 71.28 20.544 73.328 22.272 75.056C24 76.784 26.08 78.096 28.512 78.992C31.008 79.888 33.76 80.336 36.768 80.336C38.816 80.336 40.768 80.048 42.624 79.472C44.48 78.896 46.176 78.128 47.712 77.168C49.312 76.144 50.72 74.992 51.936 73.712L59.808 86.192C58.208 87.984 56.064 89.584 53.376 90.992C50.752 92.4 47.808 93.52 44.544 94.352C41.344 95.12 38.112 95.504 34.848 95.504Z" fill="#A4A4A4"/>
<path d="M70.9762 94.544V27.344H117.824V41.264H86.8163V80.624H118.784V94.544H70.9762ZM78.6562 66.992V53.744H86.8163V66.992H78.6562Z" fill="#A4A4A4"/>
<path d="M34.848 69.504C29.792 69.504 25.12 68.672 20.832 67.008C16.608 65.28 12.928 62.88 9.792 59.808C6.656 56.672 4.224 52.992 2.496 48.768C0.832 44.48 0 39.776 0 34.656C0 29.664 0.896 25.056 2.688 20.832C4.48 16.608 6.944 12.96 10.08 9.888C13.28 6.752 17.024 4.32 21.312 2.592C25.664 0.864 30.4 0 35.52 0C38.72 0 41.856 0.416 44.928 1.248C48 2.08 50.848 3.328 53.472 4.992C56.16 6.592 58.464 8.512 60.384 10.752L50.4 22.176C49.056 20.768 47.616 19.552 46.08 18.528C44.608 17.44 42.976 16.608 41.184 16.032C39.392 15.456 37.472 15.168 35.424 15.168C32.864 15.168 30.432 15.648 28.128 16.608C25.888 17.504 23.904 18.816 22.176 20.544C20.512 22.208 19.2 24.256 18.24 26.688C17.28 29.12 16.8 31.84 16.8 34.848C16.8 37.792 17.28 40.48 18.24 42.912C19.2 45.28 20.544 47.328 22.272 49.056C24 50.784 26.08 52.096 28.512 52.992C31.008 53.888 33.76 54.336 36.768 54.336C38.816 54.336 40.768 54.048 42.624 53.472C44.48 52.896 46.176 52.128 47.712 51.168C49.312 50.144 50.72 48.992 51.936 47.712L59.808 60.192C58.208 61.984 56.064 63.584 53.376 64.992C50.752 66.4 47.808 67.52 44.544 68.352C41.344 69.12 38.112 69.504 34.848 69.504Z" fill="white"/>
<path d="M70.9762 68.544V1.344H117.824V15.264H86.8163V54.624H118.784V68.544H70.9762ZM78.6562 40.992V27.744H86.8163V40.992H78.6562Z" fill="white"/>
</svg>
