<svg width="174" height="74" viewBox="0 0 174 74" fill="none" xmlns="http://www.w3.org/2000/svg">
<path d="M36.976 71.96C31.92 71.96 27.248 71.128 22.96 69.464C18.736 67.736 15.056 65.336 11.92 62.264C8.78399 59.128 6.35199 55.448 4.62399 51.224C2.95999 46.936 2.12799 42.232 2.12799 37.112C2.12799 32.12 3.02399 27.512 4.81599 23.288C6.60799 19.064 9.07199 15.416 12.208 12.344C15.408 9.208 19.152 6.776 23.44 5.04799C27.792 3.31999 32.528 2.45599 37.648 2.45599C40.848 2.45599 43.984 2.87199 47.056 3.70399C50.128 4.536 52.976 5.78399 55.6 7.44799C58.288 9.04799 60.592 10.968 62.512 13.208L52.528 24.632C51.184 23.224 49.744 22.008 48.208 20.984C46.736 19.896 45.104 19.064 43.312 18.488C41.52 17.912 39.6 17.624 37.552 17.624C34.992 17.624 32.56 18.104 30.256 19.064C28.016 19.96 26.032 21.272 24.304 23C22.64 24.664 21.328 26.712 20.368 29.144C19.408 31.576 18.928 34.296 18.928 37.304C18.928 40.248 19.408 42.936 20.368 45.368C21.328 47.736 22.672 49.784 24.4 51.512C26.128 53.24 28.208 54.552 30.64 55.448C33.136 56.344 35.888 56.792 38.896 56.792C40.944 56.792 42.896 56.504 44.752 55.928C46.608 55.352 48.304 54.584 49.84 53.624C51.44 52.6 52.848 51.448 54.064 50.168L61.936 62.648C60.336 64.44 58.192 66.04 55.504 67.448C52.88 68.856 49.936 69.976 46.672 70.808C43.472 71.576 40.24 71.96 36.976 71.96Z" fill="white"/>
<path d="M73.1042 71V3.79999H119.952V17.72H88.9442V57.08H120.912V71H73.1042ZM80.7842 43.448V30.2H115.632V43.448H80.7842Z" fill="white"/>
<path d="M88.6475 1.45599C91.9353 1.45599 95.1598 1.88399 98.3174 2.7392L98.5342 2.79974H120.952V18.7197H110.023L104.281 25.29L103.561 26.1142L102.805 25.3222C101.509 23.9647 100.125 22.7973 98.6534 21.8163L98.6329 21.8027L98.6133 21.788C97.4041 20.8943 96.0784 20.1832 94.6329 19.6552L94.0059 19.4404C92.8876 19.0809 91.7113 18.8416 90.4756 18.7197H89.9444V29.2001H116.632V44.4482H89.9444V55.791C91.8794 55.7865 93.7148 55.5127 95.4551 54.9726L96.1153 54.7578C97.6369 54.2349 99.034 53.5736 100.31 52.7763C101.843 51.794 103.185 50.6944 104.339 49.4794L105.224 48.5478L105.91 49.6347L109.976 56.08H121.912V71.9999H96.9356C93.9765 72.6389 90.9894 72.9599 87.9756 72.9599C84.8142 72.9599 81.7922 72.6395 78.9112 71.9999H72.1046V69.747C68.5535 68.1157 65.3939 65.9901 62.6299 63.3701C60.9381 65.2482 58.7078 66.8987 55.9678 68.3339L55.9669 68.3329C53.2652 69.7815 50.2477 70.9288 46.919 71.7773L46.9053 71.7802C43.6295 72.5664 40.3189 72.9599 36.9756 72.9599C31.8085 72.9599 27.0128 72.1093 22.5987 70.3964L22.5899 70.3925L22.5811 70.3896C18.2423 68.6146 14.4518 66.1445 11.2198 62.9785L11.213 62.9716L11.92 62.2636L11.213 62.9706C7.9804 59.738 5.47505 55.9456 3.6983 51.6025L3.69537 51.5947L3.69147 51.5859C1.97794 47.1702 1.12802 42.3419 1.12799 37.1122C1.12799 31.998 2.0467 27.2554 3.89557 22.8974L4.24908 22.0908C6.05668 18.0903 8.47565 14.6002 11.5079 11.6298L12.1329 11.0322C15.2889 8.08873 18.9362 5.78448 23.0665 4.12006L23.0714 4.1181L23.9151 3.79584C28.1598 2.233 32.7402 1.45604 37.6475 1.45599C40.9353 1.45599 44.1598 1.88399 47.3174 2.7392L47.9083 2.90424C50.8505 3.75869 53.5943 4.99176 56.1358 6.60345C58.5399 8.03733 60.6536 9.72399 62.4717 11.665C62.4837 11.6532 62.4959 11.6416 62.5079 11.6298L63.1329 11.0322C65.7794 8.56392 68.7721 6.54733 72.1046 4.97845V2.79974H78.0635C81.4017 1.90437 84.9305 1.45603 88.6475 1.45599ZM171.952 2.79974V18.7197H140.944V29.2001H167.632V44.4482H140.944V56.08H172.912V71.9999H123.105V2.79974H171.952ZM37.5518 18.624C35.1204 18.624 32.8196 19.0794 30.6407 19.9872L30.6339 19.9902L30.627 19.9921C28.6466 20.7843 26.8794 21.9205 25.3204 23.4052L25.0108 23.707C23.5512 25.1666 22.3699 26.9528 21.4737 29.081L21.2979 29.5107C20.3905 31.8095 19.9278 34.4028 19.9278 37.3036C19.9278 40.1342 20.3888 42.6931 21.295 44.9921L21.4698 45.4101C22.3669 47.4824 23.5802 49.2773 25.1075 50.8046L25.4151 51.1044C26.9707 52.5758 28.8207 53.711 30.9776 54.5068L31.4258 54.662C33.6822 55.4118 36.1693 55.7919 38.8956 55.7919C40.8484 55.7919 42.7003 55.5172 44.4551 54.9726L45.1153 54.7578C46.6369 54.2349 48.034 53.5736 49.3096 52.7763C50.8432 51.794 52.1847 50.6944 53.3389 49.4794L53.7989 48.9941C52.6824 45.2994 52.128 41.3367 52.128 37.1122C52.128 32.3908 52.9124 27.9868 54.4874 23.9091L53.2813 25.29L52.5606 26.1142L51.8047 25.3222C50.5089 23.9647 49.1248 22.7973 47.6534 21.8163L47.6329 21.8027L47.6133 21.788C46.4041 20.8943 45.0784 20.1832 43.6329 19.6552L43.0059 19.4404C41.3211 18.8988 39.5051 18.624 37.5518 18.624ZM72.1046 30.0253C71.3251 32.1946 70.9278 34.617 70.9278 37.3036C70.9278 39.928 71.3247 42.3186 72.1046 44.4853V30.0253Z" stroke="white" stroke-width="2"/>
</svg>
